<svg width="128" height="19" viewBox="0 0 128 19" fill="none" xmlns="http://www.w3.org/2000/svg">
<path d="M5.70703 18.2812L1.74609 3.45703L0 3.28125V1.21875H6.86719V3.28125L5.02734 3.55078L7.03125 11.8477L7.39453 13.3711H7.46484L7.89844 11.8477L11.2734 1.21875H13.793L17.2969 12.1406L17.707 13.4883H17.7773L18.1289 12.1406L20.2031 3.55078L18.2578 3.28125V1.21875H24.9961V3.28125L23.3672 3.45703L19.3594 18.2812H16.2656L13.0312 8.30859L12.6211 6.90234H12.5508L12.0938 8.35547L8.82422 18.2812H5.70703Z" fill="#262D33"/>
<path d="M26.0391 18.2812V16.2305L27.6914 15.8789V8.01562L25.8633 7.66406V5.60156H31.1133V15.8789L32.7539 16.2305V18.2812H26.0391ZM27.5742 2.91797V0H31.1133V2.91797H27.5742Z" fill="#262D33"/>
<path d="M33.7148 18.2812V16.2305L35.3672 15.8789V2.41406L33.5391 2.0625V0H38.7891V15.8789L40.4414 16.2305V18.2812H33.7148Z" fill="#262D33"/>
<path d="M41.3789 18.2812V16.2305L43.0312 15.8789V2.41406L41.2031 2.0625V0H46.4531V15.8789L48.1055 16.2305V18.2812H41.3789Z" fill="#262D33"/>
<path d="M56.6602 18.5273C55.8711 18.5273 55.1992 18.375 54.6445 18.0703C54.0898 17.7578 53.625 17.3086 53.25 16.7227L53.0039 18.2812H50.0508V2.41406L48.2344 2.0625V0H53.4609V6.94922C53.8281 6.44141 54.2773 6.05078 54.8086 5.77734C55.3477 5.50391 55.9727 5.36719 56.6836 5.36719C58.2227 5.36719 59.4062 5.97656 60.2344 7.19531C61.0703 8.40625 61.4883 10.0234 61.4883 12.0469V12.293C61.4883 14.1836 61.0703 15.6953 60.2344 16.8281C59.3984 17.9609 58.207 18.5273 56.6602 18.5273ZM55.6172 15.8672C56.4922 15.8672 57.1211 15.5586 57.5039 14.9414C57.8867 14.3164 58.0781 13.4336 58.0781 12.293V12.0469C58.0781 10.8125 57.8828 9.83594 57.4922 9.11719C57.1094 8.39062 56.4961 8.02734 55.6523 8.02734C55.1367 8.02734 54.6953 8.14844 54.3281 8.39062C53.9609 8.63281 53.6719 8.96094 53.4609 9.375V14.6719C53.9375 15.4688 54.6562 15.8672 55.6172 15.8672Z" fill="#262D33"/>
<path d="M69.3164 18.5273C68.0977 18.5273 67.0352 18.2617 66.1289 17.7305C65.2305 17.1914 64.5312 16.4531 64.0312 15.5156C63.5391 14.5781 63.293 13.5078 63.293 12.3047V11.8359C63.293 10.5781 63.5273 9.46484 63.9961 8.49609C64.4648 7.51953 65.125 6.75391 65.9766 6.19922C66.8359 5.63672 67.8477 5.35938 69.0117 5.36719C70.7227 5.36719 72.0312 5.87109 72.9375 6.87891C73.8438 7.87891 74.2969 9.28516 74.2969 11.0977V12.9609H66.8438L66.8203 13.0312C66.8828 13.8672 67.1602 14.5547 67.6523 15.0938C68.1445 15.6328 68.8438 15.9023 69.75 15.9023C70.375 15.9023 70.957 15.8242 71.4961 15.668C72.043 15.5039 72.5742 15.2656 73.0898 14.9531L74.0156 17.0625C73.4922 17.4844 72.832 17.8359 72.0352 18.1172C71.2461 18.3906 70.3398 18.5273 69.3164 18.5273ZM66.8672 10.6992H71.0977V10.3945C71.0977 9.62891 70.9375 9.02344 70.6172 8.57812C70.3047 8.125 69.7891 7.89844 69.0703 7.89844C68.3828 7.89844 67.8594 8.16016 67.5 8.68359C67.1406 9.19922 66.918 9.85156 66.832 10.6406L66.8672 10.6992Z" fill="#262D33"/>
<path d="M76.1367 18.2812V16.2305L77.7773 15.8789V8.01562L75.9609 7.66406V5.60156H80.9648L81.0938 7.17188L81.1172 7.45312C81.7422 6.0625 82.6797 5.36719 83.9297 5.36719C84.1328 5.36719 84.3516 5.38281 84.5859 5.41406C84.8281 5.44531 85.0469 5.49219 85.2422 5.55469L84.8789 8.70703L83.1797 8.61328C82.6953 8.58984 82.3008 8.67188 81.9961 8.85938C81.6992 9.04688 81.4336 9.31641 81.1992 9.66797V15.8789L82.8398 16.2305V18.2812H76.1367Z" fill="#262D33"/>
<path d="M86.5195 18.2812V16.2305L88.1602 15.8789V8.01562L86.3438 7.66406V5.60156H91.3477L91.4766 7.17188L91.5 7.45312C92.125 6.0625 93.0625 5.36719 94.3125 5.36719C94.5156 5.36719 94.7344 5.38281 94.9688 5.41406C95.2109 5.44531 95.4297 5.49219 95.625 5.55469L95.2617 8.70703L93.5625 8.61328C93.0781 8.58984 92.6836 8.67188 92.3789 8.85938C92.082 9.04688 91.8164 9.31641 91.582 9.66797V15.8789L93.2227 16.2305V18.2812H86.5195Z" fill="#262D33"/>
<path d="M96.7031 18.2812V16.2305L98.3555 15.8789V8.01562L96.5273 7.66406V5.60156H101.777V15.8789L103.418 16.2305V18.2812H96.7031ZM98.2383 2.91797V0H101.777V2.91797H98.2383Z" fill="#262D33"/>
<path d="M110.637 18.5273C109.418 18.5273 108.355 18.2617 107.449 17.7305C106.551 17.1914 105.852 16.4531 105.352 15.5156C104.859 14.5781 104.613 13.5078 104.613 12.3047V11.8359C104.613 10.5781 104.848 9.46484 105.316 8.49609C105.785 7.51953 106.445 6.75391 107.297 6.19922C108.156 5.63672 109.168 5.35938 110.332 5.36719C112.043 5.36719 113.352 5.87109 114.258 6.87891C115.164 7.87891 115.617 9.28516 115.617 11.0977V12.9609H108.164L108.141 13.0312C108.203 13.8672 108.48 14.5547 108.973 15.0938C109.465 15.6328 110.164 15.9023 111.07 15.9023C111.695 15.9023 112.277 15.8242 112.816 15.668C113.363 15.5039 113.895 15.2656 114.41 14.9531L115.336 17.0625C114.812 17.4844 114.152 17.8359 113.355 18.1172C112.566 18.3906 111.66 18.5273 110.637 18.5273ZM108.188 10.6992H112.418V10.3945C112.418 9.62891 112.258 9.02344 111.938 8.57812C111.625 8.125 111.109 7.89844 110.391 7.89844C109.703 7.89844 109.18 8.16016 108.82 8.68359C108.461 9.19922 108.238 9.85156 108.152 10.6406L108.188 10.6992Z" fill="#262D33"/>
<path d="M122.637 18.5273C121.691 18.5273 120.809 18.4375 119.988 18.2578C119.176 18.0781 118.395 17.8203 117.645 17.4844L117.609 13.8984H119.988L120.445 15.7266C120.711 15.8594 121 15.9648 121.312 16.043C121.633 16.1211 121.996 16.1602 122.402 16.1602C123.168 16.1602 123.707 16.0352 124.02 15.7852C124.332 15.5352 124.488 15.2227 124.488 14.8477C124.488 14.4961 124.32 14.1875 123.984 13.9219C123.648 13.6484 122.988 13.4102 122.004 13.207C120.496 12.8945 119.387 12.4102 118.676 11.7539C117.973 11.0977 117.621 10.2578 117.621 9.23438C117.621 8.53906 117.797 7.89844 118.148 7.3125C118.508 6.72656 119.051 6.26172 119.777 5.91797C120.512 5.56641 121.449 5.39062 122.59 5.39062C123.543 5.39062 124.414 5.48438 125.203 5.67188C126 5.85156 126.668 6.08984 127.207 6.38672L127.242 9.85547H124.875L124.512 8.19141C124.059 7.87891 123.488 7.72266 122.801 7.72266C122.207 7.72266 121.746 7.84766 121.418 8.09766C121.098 8.33984 120.938 8.64844 120.938 9.02344C120.938 9.35156 121.078 9.64844 121.359 9.91406C121.648 10.1719 122.277 10.4102 123.246 10.6289C124.816 10.9883 125.961 11.4688 126.68 12.0703C127.398 12.6641 127.758 13.5 127.758 14.5781C127.758 15.7578 127.328 16.7109 126.469 17.4375C125.617 18.1641 124.34 18.5273 122.637 18.5273Z" fill="#262D33"/>
</svg>
